<?xml version="1.0"?>
<svg xmlns="http://www.w3.org/2000/svg" xmlns:xlink="http://www.w3.org/1999/xlink" xmlns:svgjs="http://svgjs.com/svgjs" version="1.1" width="512" height="512" x="0" y="0" viewBox="0 0 480 480" style="enable-background:new 0 0 512 512" xml:space="preserve" class=""><g><path xmlns="http://www.w3.org/2000/svg" d="m0 464v16h480v-16h-16v-96c-.042969-39.746094-32.253906-71.957031-72-72h-8c-39.746094.042969-71.957031 32.253906-72 72v8h-24v-8c-.042969-39.746094-32.253906-71.957031-72-72h-8c-39.746094.042969-71.957031 32.253906-72 72v96h-16v-232c2.429688 0 4.730469-1.101562 6.246094-3l32-40c.152344-.226562.292968-.460938.417968-.703125.15625-.238281.300782-.484375.433594-.738281.300782-.605469.527344-1.246094.664063-1.910156 0-.152344.117187-.273438.140625-.433594l16-104c.355468-2.304688-.3125-4.652344-1.832032-6.421875-1.519531-1.773438-3.738281-2.792969-6.070312-2.792969h-16l14.398438-19.199219c1.820312-2.425781 2.113281-5.667969.757812-8.378906s-4.125-4.421875-7.15625-4.421875h-32v-40h-16v40h-32v-8h16v-16h-48v16h16v8h-48c-3.03125 0-5.800781 1.710938-7.15625 4.421875s-1.0625 5.953125.757812 8.378906l14.398438 19.199219h-16c-2.332031 0-4.550781 1.019531-6.070312 2.792969-1.519532 1.769531-2.1875 4.117187-1.8320318 6.421875l15.9999998 104c0 .160156.109375.28125.140625.433594.140625.664062.363281 1.3125.664063 1.917968.132812.25.277344.496094.433594.730469.125.242187.265624.476563.417968.703125l32 40c1.515625 1.898438 3.816406 3 6.246094 3v232zm288-40h24v40h-24zm144 40v-16h-16v16h-56v-16h-16v16h-16v-88h120v88zm-48-152h8c27.824219.035156 51.417969 20.464844 55.433594 48h-118.867188c4.015625-27.535156 27.609375-47.964844 55.433594-48zm-72 80v16h-24v-16zm-104-80h8c27.824219.035156 51.417969 20.464844 55.433594 48h-118.867188c4.015625-27.535156 27.609375-47.964844 55.433594-48zm-56 64h120v88h-16v-16h-16v16h-56v-16h-16v16h-16zm1.753906-256-3.699218 24h-34.742188l24-24zm-61.066406 24h-17.375l24-24h17.375zm-40 0h-26.742188l-3.699218-24h54.441406zm-24.28125 16h119.203125l-2.457031 16h-114.289063zm3.59375-104h112l-12 16h-88zm8 32h118.671875l-2.464844 16h-136.414062l-2.464844-16zm.648438 104h94.703124l-19.199218 24h-56.3125zm31.351562 40h32v232h-32zm0 0" fill="#337ab4" data-original="#000000" style="" class=""/><path xmlns="http://www.w3.org/2000/svg" d="m168 392h88v16h-88zm0 0" fill="#337ab4" data-original="#000000" style="" class=""/><path xmlns="http://www.w3.org/2000/svg" d="m168 424h88v16h-88zm0 0" fill="#337ab4" data-original="#000000" style="" class=""/><path xmlns="http://www.w3.org/2000/svg" d="m344 392h88v16h-88zm0 0" fill="#337ab4" data-original="#000000" style="" class=""/><path xmlns="http://www.w3.org/2000/svg" d="m344 424h88v16h-88zm0 0" fill="#337ab4" data-original="#000000" style="" class=""/><path xmlns="http://www.w3.org/2000/svg" d="m238 82.886719c-1.808594-1.734375-4.324219-2.523438-6.800781-2.125l-23.878907 3.773437c-2.484374.390625-4.640624 1.929688-5.820312 4.152344-1.179688 2.21875-1.246094 4.867188-.179688 7.144531l24.679688 52.800781c1.125 2.386719 3.347656 4.074219 5.953125 4.511719l25.375 4.144531c17.265625 2.832032 34.730469 4.25 52.222656 4.246094 3.601563 0 7.203125-.191406 10.769531-.3125l-11.359374 49.976563c-.542969 2.375.027343 4.867187 1.546874 6.769531 1.519532 1.902344 3.824219 3.007812 6.261719 3.007812.417969 0 .835938-.035156 1.246094-.105468l31.601563-5.007813c2.398437-.375 4.496093-1.824219 5.703124-3.933593l33.601563-58.984376 25.804687-4.089843c16.019532-2.550781 31.234376-8.753907 44.472657-18.128907l12.304687-8.734374c4.945313-3.523438 7.472656-9.539063 6.523438-15.535157-.949219-5.996093-5.210938-10.9375-11.003906-12.761719l-14.398438-4.511718c-15.5-4.835938-31.90625-6.039063-47.945312-3.511719l-25.808594 4.089844-50.144532-45.714844c-1.792968-1.640625-4.238281-2.371094-6.636718-1.984375l-31.601563 5.007812c-2.621093.421876-4.859375 2.113282-5.980469 4.515626-1.121093 2.40625-.980468 5.207031.378907 7.484374l24.839843 41.65625-45.679687 7.203126zm105.320312 117.808593-16.136718 2.550782 15.273437-67.246094 41.414063-6.558594zm63.878907-99.199218c13.605469-2.140625 27.519531-1.121094 40.664062 2.984375l14.402344 4.488281-12.304687 8.710938c-11.234376 7.964843-24.152344 13.238281-37.753907 15.410156l-13.167969 2.078125 6.976563-12.246094c1.523437-2.675781 1.375-5.984375-.375-8.515625-1.734375-2.542969-4.789063-3.847656-7.824219-3.34375l-63.199218 10.015625c-3.230469.511719-5.824219 2.933594-6.554688 6.121094l-4.0625 17.914062c-21.421875 1.03125-42.890625-.183593-64.054688-3.625l-21.210937-3.472656-18.398437-39.335937 9.457031-1.503907 26.015625 25.0625c1.792968 1.753907 4.316406 2.546875 6.792968 2.136719l61.238282-9.703125 53.761718-8.503906h.046876zm-102.542969-40.472656 16.136719-2.558594 37.863281 34.503906-31.9375 5.054688zm0 0" fill="#337ab4" data-original="#000000" style="" class=""/></g></svg>
