<?xml version="1.0"?>
<svg xmlns="http://www.w3.org/2000/svg" xmlns:xlink="http://www.w3.org/1999/xlink" xmlns:svgjs="http://svgjs.com/svgjs" version="1.1" width="512" height="512" x="0" y="0" viewBox="0 0 496 496" style="enable-background:new 0 0 512 512" xml:space="preserve" class=""><g>
<g xmlns="http://www.w3.org/2000/svg">
	<g>
		<g>
			<path d="M104.1,192h224c4.418,0,8-3.582,8-8s-3.582-8-8-8h-224c-4.418,0-8,3.582-8,8S99.682,192,104.1,192z" fill="#990000" data-original="#000000" style="" class=""/>
			<path d="M104.1,224h224c4.418,0,8-3.582,8-8s-3.582-8-8-8h-224c-4.418,0-8,3.582-8,8S99.682,224,104.1,224z" fill="#990000" data-original="#000000" style="" class=""/>
			<path d="M104.1,256h224c4.418,0,8-3.582,8-8s-3.582-8-8-8h-224c-4.418,0-8,3.582-8,8S99.682,256,104.1,256z" fill="#990000" data-original="#000000" style="" class=""/>
			<path d="M104.1,288h224c4.418,0,8-3.582,8-8s-3.582-8-8-8h-224c-4.418,0-8,3.582-8,8S99.682,288,104.1,288z" fill="#990000" data-original="#000000" style="" class=""/>
			<path d="M336.1,312c0-4.418-3.582-8-8-8h-224c-4.418,0-8,3.582-8,8s3.582,8,8,8h224C332.518,320,336.1,316.418,336.1,312z" fill="#990000" data-original="#000000" style="" class=""/>
			<path d="M384.1,320.472V8c0-4.418-3.582-8-8-8h-248c-2.215,0.009-4.324,0.947-5.816,2.584L50.5,73.76     c-0.798,0.809-1.412,1.78-1.8,2.848c-0.518,1.056-0.792,2.216-0.8,3.392c0.034,0.418,0.101,0.832,0.2,1.24V488     c0,4.418,3.582,8,8,8h320c4.418,0,8-3.582,8-8v-24.472c36.414-4.108,63.95-34.883,64-71.528     C448.05,355.355,420.514,324.58,384.1,320.472z M120.1,27.272V72H74.972L120.1,27.272z M368.1,480h-304V88h64     c4.418,0,8-3.582,8-8V16h232v304.472c-39.504,4.546-67.843,40.255-63.297,79.759c3.826,33.245,30.052,59.472,63.297,63.297V480z      M376.1,448c-30.928,0-56-25.072-56-56c0-30.928,25.072-56,56-56c30.928,0,56,25.072,56,56     C432.065,422.913,407.013,447.965,376.1,448z" fill="#990000" data-original="#000000" style="" class=""/>
			<path d="M412.1,380h-28v-28c0-4.418-3.582-8-8-8s-8,3.582-8,8v28h-28c-4.418,0-8,3.582-8,8s3.582,8,8,8h28v28     c0,4.418,3.582,8,8,8s8-3.582,8-8v-28h28c4.418,0,8-3.582,8-8S416.518,380,412.1,380z" fill="#990000" data-original="#000000" style="" class=""/>
		</g>
	</g>
</g>
<g xmlns="http://www.w3.org/2000/svg">
</g>
<g xmlns="http://www.w3.org/2000/svg">
</g>
<g xmlns="http://www.w3.org/2000/svg">
</g>
<g xmlns="http://www.w3.org/2000/svg">
</g>
<g xmlns="http://www.w3.org/2000/svg">
</g>
<g xmlns="http://www.w3.org/2000/svg">
</g>
<g xmlns="http://www.w3.org/2000/svg">
</g>
<g xmlns="http://www.w3.org/2000/svg">
</g>
<g xmlns="http://www.w3.org/2000/svg">
</g>
<g xmlns="http://www.w3.org/2000/svg">
</g>
<g xmlns="http://www.w3.org/2000/svg">
</g>
<g xmlns="http://www.w3.org/2000/svg">
</g>
<g xmlns="http://www.w3.org/2000/svg">
</g>
<g xmlns="http://www.w3.org/2000/svg">
</g>
<g xmlns="http://www.w3.org/2000/svg">
</g>
</g></svg>
