<?xml version="1.0"?>
<svg xmlns="http://www.w3.org/2000/svg" xmlns:xlink="http://www.w3.org/1999/xlink" xmlns:svgjs="http://svgjs.com/svgjs" version="1.1" width="512" height="512" x="0" y="0" viewBox="0 0 64 64" style="enable-background:new 0 0 512 512" xml:space="preserve" class=""><g><g xmlns="http://www.w3.org/2000/svg" id="Airplane"><path d="M32,21a7,7,0,1,1,7-7A7.008,7.008,0,0,1,32,21ZM32,9a5,5,0,1,0,5,5A5.006,5.006,0,0,0,32,9Z" fill="#337ab7" data-original="#000000" style="" class=""/><path d="M51,36H13.781l-1.052-4.215A5,5,0,0,0,7.88,28H3a1,1,0,0,0-1,1v8A13.015,13.015,0,0,0,15,50H27L19.2,60.4A1,1,0,0,0,20,62h8a9.042,9.042,0,0,0,7.2-3.6L41.5,50H59a3.017,3.017,0,0,0,3-3A11.013,11.013,0,0,0,51,36Zm6.689,5H53a1,1,0,0,1-1-1V38.059A8.978,8.978,0,0,1,57.689,41ZM33.6,57.2A7.039,7.039,0,0,1,28,60H22L32.5,46H42Zm26.093-9.488A.957.957,0,0,1,59,48H43l1.8-2.4A1,1,0,0,0,44,44H32a1,1,0,0,0-.8.4L28.5,48H15A11.013,11.013,0,0,1,4,37V36H8a1,1,0,0,0,0-2H4V33H6a1,1,0,0,0,0-2H4V30H7.88a3,3,0,0,1,2.91,2.272l1.24,4.97A1,1,0,0,0,13,38H50v2a3,3,0,0,0,3,3h6.05A8.921,8.921,0,0,1,60,47,.978.978,0,0,1,59.694,47.712Z" fill="#337ab7" data-original="#000000" style="" class=""/><path d="M17,40H16a1,1,0,0,0,0,2h1a1,1,0,0,0,0-2Z" fill="#337ab7" data-original="#000000" style="" class=""/><path d="M22,40H21a1,1,0,0,0,0,2h1a1,1,0,0,0,0-2Z" fill="#337ab7" data-original="#000000" style="" class=""/><path d="M27,40H26a1,1,0,0,0,0,2h1a1,1,0,0,0,0-2Z" fill="#337ab7" data-original="#000000" style="" class=""/><path d="M32,40H31a1,1,0,0,0,0,2h1a1,1,0,0,0,0-2Z" fill="#337ab7" data-original="#000000" style="" class=""/><path d="M37,40H36a1,1,0,0,0,0,2h1a1,1,0,0,0,0-2Z" fill="#337ab7" data-original="#000000" style="" class=""/><path d="M42,40H41a1,1,0,0,0,0,2h1a1,1,0,0,0,0-2Z" fill="#337ab7" data-original="#000000" style="" class=""/><path d="M47,40H46a1,1,0,0,0,0,2h1a1,1,0,0,0,0-2Z" fill="#337ab7" data-original="#000000" style="" class=""/><path d="M26,32a1,1,0,0,0,0,2H38a1,1,0,0,0,0-2H33.346C35.716,29.331,44,19.6,44,14a12,12,0,0,0-24,0c0,5.6,8.285,15.331,10.654,18ZM32,4A10.011,10.011,0,0,1,42,14c0,4.315-6.646,12.717-10,16.507C28.646,26.717,22,18.315,22,14A10.011,10.011,0,0,1,32,4Z" fill="#337ab7" data-original="#000000" style="" class=""/></g></g></svg>
