<?xml version="1.0"?>
<svg xmlns="http://www.w3.org/2000/svg" xmlns:xlink="http://www.w3.org/1999/xlink" xmlns:svgjs="http://svgjs.com/svgjs" version="1.1" width="512" height="512" x="0" y="0" viewBox="0 0 512 512" style="enable-background:new 0 0 512 512" xml:space="preserve" class=""><g>
<polygon xmlns="http://www.w3.org/2000/svg" style="" points="270.905,281.275 270.905,215.805 240.905,215.805 240.905,281.12 185.296,336.731   206.509,357.943 255.847,308.607 305.523,357.983 326.672,336.706 " fill="#265185" data-original="#265185"/>
<polygon xmlns="http://www.w3.org/2000/svg" style="" points="270.905,281.275 270.905,215.805 255.8,215.805 255.847,308.607 305.523,357.983   326.672,336.706 " fill="#183866" data-original="#183866" class=""/>
<path xmlns="http://www.w3.org/2000/svg" style="" d="M189.632,511.661H0v-15c0-44.464,36.174-80.638,80.638-80.638h28.357  c44.464,0,80.638,36.174,80.638,80.638L189.632,511.661L189.632,511.661z" fill="#52b6fc" data-original="#52b6fc"/>
<path xmlns="http://www.w3.org/2000/svg" style="" d="M108.995,416.023H95v95.638h94.632v-15C189.632,452.197,153.458,416.023,108.995,416.023z" fill="#3b97d6" data-original="#3b97d6"/>
<path xmlns="http://www.w3.org/2000/svg" style="" d="M512,511.661H322.368v-15c0-44.464,36.174-80.638,80.638-80.638h28.356  c44.464,0,80.638,36.174,80.638,80.638V511.661z" fill="#148dbd" data-original="#ea0016" class=""/>
<path xmlns="http://www.w3.org/2000/svg" style="" d="M431.362,416.023h-14.285v95.638H512v-15C512,452.197,475.826,416.023,431.362,416.023z" fill="#0e56b3" data-original="#c30010" class=""/>
<path xmlns="http://www.w3.org/2000/svg" style="" d="M350.816,181.245H161.184v-15c0-44.463,36.174-80.637,80.638-80.637h28.357  c44.464,0,80.638,36.174,80.638,80.637v15H350.816z" fill="#064d78" data-original="#fda42d" class=""/>
<path xmlns="http://www.w3.org/2000/svg" style="" d="M270.179,85.608h-14.195v95.637h94.833v-15C350.816,121.782,314.643,85.608,270.179,85.608z" fill="#040c83" data-original="#ee7f2a" class=""/>
<path xmlns="http://www.w3.org/2000/svg" style="" d="M94.716,446.023c-31.78,0-57.635-25.854-57.635-57.635s25.855-57.635,57.635-57.635  s57.635,25.854,57.635,57.635S126.496,446.023,94.716,446.023z" fill="#ffdfcf" data-original="#ffdfcf" class=""/>
<path xmlns="http://www.w3.org/2000/svg" style="" d="M95,330.761v115.255c31.649-0.154,57.351-25.943,57.351-57.628S126.649,330.915,95,330.761z" fill="#ffcebf" data-original="#ffcebf" class=""/>
<path xmlns="http://www.w3.org/2000/svg" style="" d="M417.084,446.023c-31.78,0-57.635-25.854-57.635-57.635s25.854-57.635,57.635-57.635  s57.635,25.854,57.635,57.635S448.864,446.023,417.084,446.023z" fill="#ffdfcf" data-original="#ffdfcf" class=""/>
<path xmlns="http://www.w3.org/2000/svg" style="" d="M417.084,330.754c-0.028,0-0.028,115.27,0,115.27c31.78,0,57.635-25.854,57.635-57.635  S448.864,330.754,417.084,330.754z" fill="#ffcebf" data-original="#ffcebf" class=""/>
<path xmlns="http://www.w3.org/2000/svg" style="" d="M255.9,115.608c-31.78,0-57.635-25.854-57.635-57.635S224.12,0.339,255.9,0.339  s57.634,25.854,57.634,57.635S287.68,115.608,255.9,115.608z" fill="#ffdfcf" data-original="#ffdfcf" class=""/>
<path xmlns="http://www.w3.org/2000/svg" style="" d="M255.9,0.339v115.27c31.78,0,57.634-25.854,57.634-57.635S287.68,0.339,255.9,0.339z" fill="#ffcebf" data-original="#ffcebf" class=""/>
<g xmlns="http://www.w3.org/2000/svg">
</g>
<g xmlns="http://www.w3.org/2000/svg">
</g>
<g xmlns="http://www.w3.org/2000/svg">
</g>
<g xmlns="http://www.w3.org/2000/svg">
</g>
<g xmlns="http://www.w3.org/2000/svg">
</g>
<g xmlns="http://www.w3.org/2000/svg">
</g>
<g xmlns="http://www.w3.org/2000/svg">
</g>
<g xmlns="http://www.w3.org/2000/svg">
</g>
<g xmlns="http://www.w3.org/2000/svg">
</g>
<g xmlns="http://www.w3.org/2000/svg">
</g>
<g xmlns="http://www.w3.org/2000/svg">
</g>
<g xmlns="http://www.w3.org/2000/svg">
</g>
<g xmlns="http://www.w3.org/2000/svg">
</g>
<g xmlns="http://www.w3.org/2000/svg">
</g>
<g xmlns="http://www.w3.org/2000/svg">
</g>
</g></svg>
