<svg height="512" viewBox="0 0 64 64" width="512" xmlns="http://www.w3.org/2000/svg"><g id="Layer_30" data-name="Layer 30"><circle cx="28" cy="28" fill="#939393" r="26"/><circle cx="28" cy="28" fill="#ccc" r="20"/><circle cx="28" cy="28" fill="#f2f2f2" r="15"/><circle cx="48" cy="48" fill="#f3a845" r="14"/><path d="m48 34a13.994 13.994 0 0 0 -10.717 23h12.717a7 7 0 0 0 7-7v-12.717a13.938 13.938 0 0 0 -9-3.283z" fill="#eecc61"/><rect fill="#fce79c" height="12" rx="3" width="16" x="39" y="41"/><circle cx="28" cy="28" fill="#fff" r="10"/><path d="m27 14.999h2v11.001h-2z" fill="#ccc"/><g fill="#939393"><path d="m29 8.05c-.333-.016-.662-.05-1-.05s-.667.034-1 .05v2.95h2z"/><path d="m27 47.95c.333.016.662.05 1 .05s.667-.034 1-.05v-2.95h-2z"/><path d="m8.05 29h2.95v-2h-2.95c-.016.333-.05.662-.05 1s.034.667.05 1z"/><path d="m45 29h2.95c.016-.333.05-.662.05-1s-.034-.667-.05-1h-2.95z"/><path d="m41.4 13.185-2.088 2.087 1.415 1.415 2.088-2.087q-.672-.744-1.415-1.415z"/><path d="m13.185 41.4q.672.742 1.414 1.414l2.088-2.087-1.415-1.415z"/><path d="m13.185 14.6 2.087 2.088 1.415-1.415-2.087-2.088q-.744.672-1.415 1.415z"/></g><path d="m30 27h11v2h-11z" fill="#ccc"/><circle cx="28" cy="28" fill="#939393" r="3"/><rect fill="#fff" height="12" rx="2" width="4" x="46" y="39"/><circle cx="48" cy="56" fill="#fff" r="2"/></g></svg>