<?xml version="1.0"?>
<svg xmlns="http://www.w3.org/2000/svg" xmlns:xlink="http://www.w3.org/1999/xlink" xmlns:svgjs="http://svgjs.com/svgjs" version="1.1" width="512" height="512" x="0" y="0" viewBox="0 0 64 64" style="enable-background:new 0 0 512 512" xml:space="preserve" class=""><g><link type="text/css" rel="stylesheet" id="dark-mode-custom-link"/><link type="text/css" rel="stylesheet" id="dark-mode-general-link"/><style lang="en" type="text/css" id="dark-mode-custom-style"/><style lang="en" type="text/css" id="dark-mode-native-style"/><path xmlns="http://www.w3.org/2000/svg" d="M61.64631,58.52539l-3.14648-3.14648V52a11.53219,11.53219,0,0,0-5-9.47424V46a1.5,1.5,0,0,1-3,0V40a1.50008,1.50008,0,0,0-1.5-1.5h-4a1.50007,1.50007,0,0,0-1.5,1.5v6a1.5,1.5,0,0,1-3,0V42.52576a11.53216,11.53216,0,0,0-5,9.47424v3.37891l-3.14746,3.14746A2.91931,2.91931,0,0,0,34.41389,63.5H59.58577a2.91913,2.91913,0,0,0,2.06152-4.97363ZM53.99983,57.5h-14a1.5,1.5,0,0,1,0-3h14a1.5,1.5,0,0,1,0,3Z" style="" fill="#ab8d0e" data-original="#3e3ef4" class=""/><path xmlns="http://www.w3.org/2000/svg" d="M40.616,32a9.5,9.5,0,1,0-9.5,9.5A9.5108,9.5108,0,0,0,40.616,32Zm-9.5,6.5a6.5,6.5,0,1,1,6.5-6.5A6.50753,6.50753,0,0,1,31.116,38.5Z" fill="#ffffff" data-original="#000000" style="" class=""/><path xmlns="http://www.w3.org/2000/svg" d="M46.616,32a1.5,1.5,0,0,0,3,0A18.49974,18.49974,0,0,0,18.035,18.91846a1.49984,1.49984,0,1,0,2.12109,2.12109A15.50007,15.50007,0,0,1,46.616,32Z" fill="#ffffff" data-original="#000000" style="" class=""/><path xmlns="http://www.w3.org/2000/svg" d="M15.616,32a1.5,1.5,0,0,0-3,0,18.49017,18.49017,0,0,0,18.5,18.5,1.5,1.5,0,0,0,0-3A15.49135,15.49135,0,0,1,15.616,32Z" fill="#ffffff" data-original="#000000" style="" class=""/><path xmlns="http://www.w3.org/2000/svg" d="M53.94026,26.084a1.50172,1.50172,0,0,0-.32422.93213V34a1.5,1.5,0,0,0,3,0V27.53857l3.38672-4.2705a3.33029,3.33029,0,0,0,.27735-3.75489L56.51155,12.9873a3.32086,3.32086,0,0,0-3.38867-1.63818L47.7303,12.147,40.00179,7.686,37.9969,2.61572A3.3312,3.3312,0,0,0,34.88362.5H27.34847a3.33094,3.33094,0,0,0-3.11329,2.11621L22.22933,7.686,14.50179,12.147l-5.39161-.79785a3.3357,3.3357,0,0,0-3.38964,1.6377L1.952,19.51367a3.32947,3.32947,0,0,0,.27637,3.75342L5.616,27.53857v8.92286l-3.38671,4.2705A3.33029,3.33029,0,0,0,1.952,44.48682L5.72054,51.0127a3.32021,3.32021,0,0,0,3.38867,1.63818l5.39258-.79785L22.22933,56.314l2.00585,5.06934a3.35033,3.35033,0,0,0,2.93848,2.1001c.02637.00146.05371.00195.08008.00195a1.50007,1.50007,0,0,0,.07812-2.998.34118.34118,0,0,1-.30761-.207L24.827,54.72461a1.49719,1.49719,0,0,0-.64453-.74707l-8.63281-4.98389a1.49771,1.49771,0,0,0-.96973-.18506l-5.91113.87452a.34488.34488,0,0,1-.35059-.16993L4.54964,42.9873a.3445.3445,0,0,1,.03027-.39013L8.29183,37.916a1.50171,1.50171,0,0,0,.32421-.93213V27.01611a1.50171,1.50171,0,0,0-.32421-.93213l-3.7129-4.68212a.3437.3437,0,0,1-.02929-.38868l3.76855-6.52685a.34081.34081,0,0,1,.35157-.16944l5.91015.87452a1.4954,1.4954,0,0,0,.96973-.18506l8.63281-4.98389a1.49719,1.49719,0,0,0,.64453-.74707l2.19727-5.55518A.347.347,0,0,1,27.34847,3.5h7.53515a.34724.34724,0,0,1,.32422.21973l2.19727,5.55566a1.49719,1.49719,0,0,0,.64453.74707l8.63281,4.98389a1.50643,1.50643,0,0,0,.96973.18506l5.91113-.87452a.33944.33944,0,0,1,.35059.16993l3.76855,6.52588a.3445.3445,0,0,1-.03027.39013Z" fill="#ffffff" data-original="#000000" style="" class=""/></g></svg>
