<svg xmlns="http://www.w3.org/2000/svg" height="737pt" version="1.1" viewBox="-91 1 737 737.711" width="737pt">
<g id="surface1">
<path d="M 277.800781 234.417969 C 232.445312 234.390625 187.304688 228.066406 143.691406 215.628906 L 133.824219 212.789062 L 133.824219 134.648438 L 149.910156 137.757812 C 192.183594 144.992188 234.933594 149.195312 277.800781 150.332031 C 320.667969 149.195312 363.417969 144.992188 405.691406 137.757812 L 421.777344 134.648438 L 421.777344 212.921875 L 411.90625 215.761719 C 368.28125 228.160156 323.15625 234.433594 277.800781 234.417969 Z M 277.800781 234.417969 " style=" stroke:none;fill-rule:nonzero;fill:rgb(27.45098%,40.784314%,55.686275%);fill-opacity:1;" />
<path d="M 277.800781 163.714844 C 234.242188 162.59375 190.820312 158.292969 147.882812 150.871094 L 147.882812 202.648438 C 233.105469 227.023438 323.441406 227.023438 408.664062 202.648438 L 408.664062 151.007812 C 365.726562 158.429688 322.304688 162.726562 278.746094 163.847656 L 277.800781 163.847656 C 277.800781 163.847656 277.800781 163.714844 277.800781 163.714844 Z M 277.800781 163.714844 " style=" stroke:none;fill-rule:nonzero;fill:rgb(27.45098%,40.784314%,55.686275%);fill-opacity:1;" />
<path d="M 277.800781 442.070312 C 228.589844 442.070312 183.167969 407.730469 159.375 352.304688 L 158.15625 352.304688 L 155.996094 353.113281 C 154.089844 353.589844 152.140625 353.816406 150.179688 353.792969 C 145.476562 353.84375 140.828125 352.722656 136.660156 350.546875 C 124.101562 343.191406 114.855469 331.28125 110.839844 317.289062 C 106.949219 306 106.472656 293.820312 109.488281 282.277344 C 111.570312 272.921875 118.222656 265.242188 127.199219 261.863281 C 129.550781 261.066406 132.023438 260.699219 134.5 260.78125 C 137.296875 260.808594 140.082031 261.253906 142.746094 262.132812 C 142.746094 250.910156 142.746094 240.90625 143.691406 231.578125 L 144.636719 215.355469 L 160.457031 219.277344 C 198.808594 229.050781 238.21875 234.132812 277.800781 234.417969 C 317.394531 234.472656 356.84375 229.714844 395.28125 220.222656 L 411.097656 216.304688 L 412.042969 232.523438 C 412.042969 241.71875 412.988281 251.722656 412.988281 263.078125 C 415.613281 262.214844 418.34375 261.765625 421.101562 261.726562 C 423.398438 261.726562 425.683594 262.09375 427.859375 262.808594 C 436.769531 266.242188 443.367188 273.90625 445.433594 283.222656 C 448.476562 294.808594 448.003906 307.042969 444.082031 318.371094 C 440.570312 329.792969 433.808594 339.949219 424.617188 347.570312 C 419.25 352.046875 412.542969 354.617188 405.554688 354.871094 C 403.59375 354.882812 401.648438 354.667969 399.742188 354.195312 L 398.117188 354.195312 L 396.765625 353.382812 C 372.433594 407.597656 327.011719 442.070312 277.800781 442.070312 Z M 277.800781 442.070312 " style=" stroke:none;fill-rule:nonzero;fill:rgb(100%,81.568627%,54.509804%);fill-opacity:1;" />
<path d="M 277.800781 428.550781 C 321.601562 428.550781 362.160156 397.320312 383.789062 347.4375 C 386.722656 340.570312 394.660156 337.378906 401.527344 340.300781 C 401.605469 340.339844 401.6875 340.367188 401.769531 340.40625 L 402.984375 340.40625 C 407.894531 341.109375 412.855469 339.570312 416.503906 336.21875 C 430.605469 323.792969 436.785156 304.652344 432.59375 286.332031 C 431.566406 281.398438 428.332031 277.207031 423.804688 274.976562 C 421.601562 274.273438 419.25 274.273438 417.046875 274.976562 C 409.921875 277.222656 402.335938 273.273438 400.078125 266.148438 C 399.726562 265.027344 399.511719 263.851562 399.46875 262.675781 C 399.46875 251.726562 399.46875 241.992188 398.523438 232.933594 C 359.046875 242.828125 318.503906 247.871094 277.800781 247.9375 C 237.09375 247.859375 196.566406 242.816406 157.074219 232.933594 C 157.074219 241.992188 156.128906 251.726562 156.128906 262.675781 C 156.074219 270.136719 149.976562 276.152344 142.515625 276.097656 C 141.21875 276.085938 139.933594 275.894531 138.691406 275.519531 C 136.539062 274.828125 134.214844 274.828125 132.066406 275.519531 C 127.484375 277.695312 124.171875 281.898438 123.144531 286.875 C 120.910156 295.808594 121.332031 305.203125 124.359375 313.910156 C 127.292969 324.46875 134.105469 333.554688 143.421875 339.328125 C 146.152344 340.910156 149.367188 341.488281 152.476562 340.949219 L 153.695312 340.949219 C 160.507812 337.894531 168.511719 340.921875 171.566406 347.738281 C 171.609375 347.816406 171.636719 347.898438 171.675781 347.980469 C 193.441406 397.320312 234 428.550781 277.800781 428.550781 Z M 277.800781 428.550781 " style=" stroke:none;fill-rule:nonzero;fill:rgb(100%,81.568627%,54.509804%);fill-opacity:1;" />
<path d="M 379.867188 480.058594 L 388.925781 441.53125 L 446.921875 464.375 L 483.558594 479.382812 L 474.636719 517.371094 Z M 379.867188 480.058594 " style=" stroke:none;fill-rule:nonzero;fill:rgb(27.45098%,40.784314%,55.686275%);fill-opacity:1;" />
<path d="M 467.742188 487.492188 L 441.921875 476.949219 L 398.390625 459.914062 L 395.6875 471.675781 L 465.039062 498.984375 Z M 467.742188 487.492188 " style=" stroke:none;fill-rule:nonzero;fill:rgb(27.45098%,40.784314%,55.686275%);fill-opacity:1;" />
<path d="M 277.800781 150.195312 C 164.917969 145.597656 98.539062 131.539062 80.558594 108.558594 C 75.867188 102.648438 74.355469 94.835938 76.503906 87.601562 L 76.503906 85.710938 C 82.992188 59.890625 164.242188 13.382812 277.9375 13.382812 C 391.628906 13.382812 472.742188 59.753906 479.097656 85.035156 L 479.097656 87.738281 C 481.195312 94.929688 479.679688 102.691406 475.042969 108.558594 C 457.0625 131.539062 390.683594 145.597656 277.800781 150.195312 Z M 277.800781 150.195312 " style=" stroke:none;fill-rule:nonzero;fill:rgb(100%,100%,100%);fill-opacity:1;" />
<path d="M 464.902344 100.175781 C 467.148438 97.402344 467.714844 93.617188 466.390625 90.304688 L 466.390625 88.277344 C 462.199219 73.136719 389.332031 27.039062 277.800781 27.039062 C 166.269531 27.039062 93.402344 73.136719 89.617188 88.414062 L 89.617188 90.304688 C 88.292969 93.617188 88.859375 97.402344 91.105469 100.175781 C 98.132812 109.097656 130.308594 130.59375 278.207031 136.675781 C 425.699219 130.59375 458.007812 109.234375 464.902344 100.175781 Z M 464.902344 100.175781 " style=" stroke:none;fill-rule:nonzero;fill:rgb(100%,100%,100%);fill-opacity:1;" />
<path d="M 73.257812 478.839844 L 168.160156 441.53125 L 177.082031 480.058594 L 82.316406 517.371094 Z M 73.257812 478.839844 " style=" stroke:none;fill-rule:nonzero;fill:rgb(27.45098%,40.784314%,55.686275%);fill-opacity:1;" />
<path d="M 161.265625 471.675781 L 158.5625 459.914062 L 89.074219 487.222656 L 91.914062 498.984375 Z M 161.265625 471.675781 " style=" stroke:none;fill-rule:nonzero;fill:rgb(27.45098%,40.784314%,55.686275%);fill-opacity:1;" />
<path d="M 317.546875 724.34375 L 302.269531 534.269531 L 308.625 529.808594 C 312.773438 526.902344 315.234375 522.15625 315.25 517.097656 L 315.25 491.953125 C 314.882812 483.628906 308.03125 477.070312 299.699219 477.082031 L 255.898438 477.082031 C 247.316406 477.082031 240.351562 484.046875 240.351562 492.628906 L 240.351562 517.640625 C 240.367188 522.695312 242.828125 527.441406 246.976562 530.347656 L 253.332031 534.808594 L 238.054688 724.34375 L 29.457031 724.34375 C 20.871094 724.34375 13.910156 717.382812 13.910156 708.796875 L 13.910156 512.367188 C 13.910156 503.785156 20.871094 496.820312 29.457031 496.820312 L 73.257812 478.839844 L 82.316406 517.640625 L 176.949219 480.328125 L 167.621094 440.582031 L 213.449219 421.789062 L 219.261719 425.441406 C 254.820312 448.222656 300.378906 448.222656 335.933594 425.441406 L 341.746094 421.789062 L 388.925781 441.125 L 379.734375 480.328125 L 474.367188 517.640625 L 483.289062 479.652344 L 525.875 497.09375 C 534.40625 497.160156 541.285156 504.109375 541.285156 512.640625 L 541.285156 708.9375 C 541.285156 717.519531 534.324219 724.484375 525.738281 724.484375 Z M 317.546875 724.34375 " style=" stroke:none;fill-rule:nonzero;fill:rgb(100%,100%,100%);fill-opacity:1;" />
<path d="M 526.144531 510.339844 C 524.386719 510.367188 522.644531 510.042969 521.007812 509.394531 L 493.023438 497.902344 L 487.75 520.480469 C 486.035156 527.738281 478.746094 532.242188 471.488281 530.523438 C 470.851562 530.375 470.242188 530.1875 469.636719 529.941406 L 375.003906 492.628906 C 368.742188 490.238281 365.175781 483.628906 366.621094 477.082031 L 373.246094 449.097656 L 343.234375 436.527344 C 303.355469 461.929688 252.386719 461.929688 212.503906 436.527344 L 183.167969 448.289062 L 189.929688 476.8125 C 191.46875 483.371094 187.957031 490.046875 181.683594 492.496094 L 87.046875 529.808594 C 80.097656 532.550781 72.246094 529.132812 69.511719 522.195312 C 69.269531 521.601562 69.082031 520.980469 68.933594 520.34375 L 63.523438 497.363281 L 34.460938 509.394531 C 32.824219 510.042969 31.082031 510.367188 29.324219 510.339844 C 28.199219 510.339844 27.296875 511.246094 27.296875 512.371094 L 27.296875 708.933594 C 27.296875 710.058594 28.199219 710.960938 29.324219 710.960938 L 110.4375 710.960938 L 110.4375 675.003906 C 110.4375 667.539062 116.492188 661.484375 123.957031 661.484375 C 131.417969 661.484375 137.476562 667.539062 137.476562 675.003906 L 137.476562 710.828125 L 225.617188 710.828125 L 239.136719 540.894531 C 231.539062 535.566406 226.972656 526.914062 226.835938 517.640625 L 226.835938 491.957031 C 227.203125 476.164062 240.113281 463.566406 255.902344 463.566406 L 299.839844 463.566406 C 315.886719 463.566406 328.902344 476.585938 328.902344 492.628906 L 328.902344 517.640625 C 328.917969 527.132812 324.265625 536.027344 316.464844 541.433594 L 329.984375 711.367188 L 418.128906 711.367188 L 418.128906 675 C 418.128906 667.539062 424.183594 661.480469 431.648438 661.480469 C 439.109375 661.480469 445.167969 667.539062 445.167969 675 L 445.167969 710.828125 L 526.28125 710.828125 C 527.402344 710.828125 528.308594 709.921875 528.308594 708.796875 L 528.308594 512.367188 C 528.308594 511.246094 527.402344 510.339844 526.28125 510.339844 C 526.238281 510.339844 526.183594 510.339844 526.144531 510.339844 Z M 526.144531 510.339844 " style=" stroke:none;fill-rule:nonzero;fill:rgb(100%,100%,100%);fill-opacity:1;" />
<path d="M 255.898438 476.542969 L 299.699219 476.542969 C 308.285156 476.542969 315.25 483.507812 315.25 492.089844 L 315.25 517.101562 C 315.25 525.683594 308.285156 532.648438 299.699219 532.648438 L 255.898438 532.648438 C 247.316406 532.648438 240.351562 525.683594 240.351562 517.101562 L 240.351562 492.089844 C 240.351562 483.507812 247.316406 476.542969 255.898438 476.542969 Z M 255.898438 476.542969 " style=" stroke:none;fill-rule:nonzero;fill:rgb(27.45098%,40.784314%,55.686275%);fill-opacity:1;" />
<path d="M 255.898438 490.0625 L 299.699219 490.0625 C 300.824219 490.0625 301.730469 490.96875 301.730469 492.089844 L 301.730469 517.101562 C 301.730469 518.222656 300.824219 519.128906 299.699219 519.128906 L 255.898438 519.128906 C 254.777344 519.128906 253.871094 518.222656 253.871094 517.101562 L 253.871094 492.089844 C 253.871094 490.96875 254.777344 490.0625 255.898438 490.0625 Z M 255.898438 490.0625 " style=" stroke:none;fill-rule:nonzero;fill:rgb(27.45098%,40.784314%,55.686275%);fill-opacity:1;" />
<path d="M 238.054688 724.480469 L 253.464844 532.648438 L 302.136719 532.648438 L 317.546875 724.480469 Z M 238.054688 724.480469 " style=" stroke:none;fill-rule:nonzero;fill:rgb(27.45098%,40.784314%,55.686275%);fill-opacity:1;" />
<path d="M 266.039062 546.164062 L 252.65625 710.960938 L 302.945312 710.960938 L 289.5625 546.164062 Z M 266.039062 546.164062 " style=" stroke:none;fill-rule:nonzero;fill:rgb(27.45098%,40.784314%,55.686275%);fill-opacity:1;" />
<path d="M 529.253906 483.4375 L 491.265625 467.890625 C 490.425781 467.242188 489.523438 466.703125 488.5625 466.269531 L 452.332031 452.074219 L 367.835938 417.464844 C 382.640625 403.1875 394.863281 386.4375 403.933594 367.984375 C 414.464844 368.066406 424.683594 364.46875 432.863281 357.847656 C 455.777344 338.648438 465.699219 308.027344 458.414062 279.03125 C 454.953125 265.269531 444.785156 254.195312 431.375 249.558594 C 429.523438 248.949219 427.632812 248.503906 425.699219 248.207031 C 425.699219 240.230469 425.699219 232.929688 424.480469 225.902344 C 430.386719 224.117188 434.351562 218.546875 434.078125 212.382812 L 434.078125 144.785156 C 465.578125 135.863281 478.289062 125.589844 485.046875 116.9375 C 492.320312 107.542969 494.671875 95.242188 491.398438 83.816406 C 485.585938 50.425781 396.765625 0 276.585938 0 C 156.402344 0 68.796875 50.289062 62.714844 85.035156 C 59.726562 96.160156 62.171875 108.042969 69.339844 117.074219 C 76.097656 125.726562 88.804688 136 120.304688 144.921875 L 120.304688 212.515625 C 120.035156 218.683594 123.996094 224.253906 129.902344 226.035156 C 129.902344 233.066406 128.957031 240.367188 128.6875 248.34375 C 126.753906 248.640625 124.863281 249.085938 123.007812 249.695312 C 109.585938 254.304688 99.417969 265.402344 95.972656 279.167969 C 92.171875 293.375 92.6875 308.382812 97.457031 322.292969 C 102.59375 339.515625 114.234375 354.050781 129.902344 362.847656 C 136.230469 366.1875 143.300781 367.851562 150.453125 367.714844 C 159.535156 386.167969 171.746094 402.921875 186.546875 417.195312 L 26.347656 483.4375 C 11.625 485.019531 0.445312 497.429688 0.390625 512.234375 L 0.390625 708.9375 C 0.390625 724.984375 13.410156 738 29.457031 738 L 526.144531 738 C 542.191406 738 555.207031 724.980469 555.207031 708.9375 L 555.207031 512.367188 C 555.222656 497.511719 544.027344 485.035156 529.253906 483.4375 Z M 398.523438 459.78125 L 441.921875 477.082031 L 467.742188 487.628906 L 465.039062 499.121094 L 395.6875 472.082031 Z M 90.699219 100.175781 C 88.453125 97.402344 87.886719 93.617188 89.210938 90.304688 L 89.210938 88.414062 C 92.996094 73.136719 165.863281 27.039062 277.394531 27.039062 C 388.925781 27.039062 461.792969 73.136719 465.578125 88.414062 L 465.578125 90.441406 C 466.902344 93.753906 466.335938 97.539062 464.089844 100.308594 C 457.0625 109.234375 424.886719 130.726562 276.988281 136.8125 C 129.902344 130.59375 97.59375 109.234375 90.699219 100.175781 Z M 408.257812 150.871094 L 408.257812 202.648438 C 323.035156 227.023438 232.703125 227.023438 147.476562 202.648438 L 147.476562 151.007812 C 190.414062 158.429688 233.835938 162.726562 277.394531 163.847656 L 277.800781 163.847656 C 321.546875 162.753906 365.148438 158.457031 408.257812 151.007812 Z M 171.675781 347.03125 C 168.742188 340.164062 160.808594 336.972656 153.941406 339.894531 C 153.859375 339.933594 153.777344 339.960938 153.695312 340 L 152.480469 340 C 149.371094 340.542969 146.152344 339.960938 143.421875 338.378906 C 134.136719 332.632812 127.335938 323.617188 124.359375 313.097656 C 121.332031 304.390625 120.914062 294.996094 123.144531 286.058594 C 124.171875 281.085938 127.484375 276.878906 132.066406 274.703125 C 134.21875 274.015625 136.542969 274.015625 138.691406 274.703125 C 145.828125 276.882812 153.386719 272.867188 155.578125 265.726562 C 155.875 264.742188 156.0625 263.714844 156.132812 262.671875 C 156.132812 251.722656 156.132812 241.988281 157.078125 232.929688 C 196.566406 242.8125 237.097656 247.855469 277.800781 247.9375 C 318.507812 247.871094 359.050781 242.828125 398.527344 232.929688 C 398.527344 241.988281 399.472656 251.722656 399.472656 262.671875 C 399.527344 270.136719 405.625 276.152344 413.085938 276.097656 C 414.382812 276.085938 415.667969 275.894531 416.914062 275.515625 C 419.117188 274.8125 421.46875 274.8125 423.671875 275.515625 C 428.199219 277.746094 431.433594 281.9375 432.460938 286.871094 C 436.648438 305.191406 430.472656 324.332031 416.371094 336.757812 C 412.722656 340.109375 407.761719 341.648438 402.851562 340.945312 L 401.636719 340.945312 C 394.824219 337.890625 386.820312 340.921875 383.765625 347.734375 C 383.722656 347.816406 383.695312 347.894531 383.65625 347.976562 C 362.027344 398.265625 321.332031 429.089844 277.667969 429.089844 C 234 429.089844 193.441406 397.320312 171.675781 347.03125 Z M 158.15625 459.914062 L 160.996094 471.8125 L 91.644531 498.847656 L 88.535156 487.222656 Z M 252.789062 710.960938 L 266.308594 546.300781 L 289.96875 546.300781 L 303.488281 710.960938 Z M 253.871094 517.640625 L 253.871094 491.957031 C 253.871094 490.832031 254.777344 489.925781 255.898438 489.925781 L 299.835938 489.925781 C 300.957031 489.925781 301.863281 490.832031 301.863281 491.957031 L 301.863281 517.640625 C 301.863281 518.765625 300.957031 519.667969 299.835938 519.667969 L 255.898438 519.667969 C 254.777344 519.667969 253.871094 518.761719 253.871094 517.640625 Z M 528.171875 708.933594 C 528.171875 710.058594 527.265625 710.960938 526.144531 710.960938 L 445.03125 710.960938 L 445.03125 675.003906 C 445.03125 667.539062 438.972656 661.484375 431.511719 661.484375 C 424.046875 661.484375 417.992188 667.539062 417.992188 675.003906 L 417.992188 710.828125 L 330.117188 710.828125 L 316.597656 540.894531 C 324.144531 535.539062 328.65625 526.886719 328.765625 517.640625 L 328.765625 491.957031 C 328.398438 476.164062 315.492188 463.566406 299.699219 463.566406 L 255.898438 463.566406 C 239.851562 463.566406 226.832031 476.585938 226.832031 492.628906 L 226.832031 517.640625 C 226.820312 527.132812 231.46875 536.027344 239.269531 541.433594 L 225.753906 711.367188 L 137.339844 711.367188 L 137.339844 675 C 137.339844 667.539062 131.28125 661.480469 123.820312 661.480469 C 116.355469 661.480469 110.300781 667.539062 110.300781 675 L 110.300781 710.828125 L 29.1875 710.828125 C 28.0625 710.828125 27.15625 709.921875 27.15625 708.796875 L 27.15625 512.367188 C 27.15625 511.246094 28.0625 510.339844 29.1875 510.339844 C 30.945312 510.367188 32.6875 510.042969 34.324219 509.394531 L 63.523438 497.496094 L 68.929688 520.480469 C 70.648438 527.738281 77.933594 532.242188 85.195312 530.523438 C 85.816406 530.375 86.4375 530.1875 87.046875 529.941406 L 181.679688 492.628906 C 188.046875 490.34375 191.75 483.695312 190.332031 477.082031 L 183.167969 448.289062 L 212.367188 436.527344 C 252.246094 461.929688 303.214844 461.929688 343.09375 436.527344 L 373.242188 448.828125 L 366.617188 477.082031 C 365.074219 483.640625 368.589844 490.316406 374.863281 492.765625 L 469.496094 530.078125 C 476.445312 532.820312 484.300781 529.402344 487.03125 522.464844 C 487.273438 521.871094 487.460938 521.25 487.613281 520.613281 L 492.882812 498.039062 L 520.867188 509.527344 C 522.503906 510.179688 524.246094 510.503906 526.003906 510.476562 C 527.128906 510.476562 528.03125 511.382812 528.03125 512.503906 Z M 528.171875 708.933594 " style=" stroke:none;fill-rule:nonzero;fill:rgb(0%,0%,0%);fill-opacity:1;" />
</g>
</svg>